<?xml version="1.0" standalone="no"?>
<!DOCTYPE svg PUBLIC "-//W3C//DTD SVG 20010904//EN"
 "http://www.w3.org/TR/2001/REC-SVG-20010904/DTD/svg10.dtd">
<svg version="1.0" xmlns="http://www.w3.org/2000/svg"
 width="512.000000pt" height="512.000000pt" viewBox="0 0 512.000000 512.000000"
 preserveAspectRatio="xMidYMid meet">
<metadata>
Created by potrace 1.16, written by Peter Selinger 2001-2019
</metadata>
<g transform="translate(0.000000,512.000000) scale(0.100000,-0.100000)"
fill="#000000" stroke="none">
<path d="M1800 4419 c-14 -6 -36 -20 -48 -32 -22 -21 -82 -103 -82 -112 0 -3
19 5 43 18 36 19 57 22 145 21 56 -1 102 3 102 8 0 5 -5 18 -10 29 -14 25 -4
24 48 -6 70 -40 180 -144 226 -214 55 -85 76 -140 86 -226 l9 -70 -3 82 c-2
72 -7 92 -41 160 -51 106 -188 243 -290 291 -39 18 -77 37 -85 41 -29 16 -75
20 -100 10z m58 -25 c35 -24 26 -32 -39 -36 l-60 -3 31 28 c35 32 38 32 68 11z"/>
<path d="M3232 4390 c-64 -30 -136 -79 -128 -87 2 -3 22 7 43 21 45 31 53 32
53 6 0 -18 5 -19 60 -13 70 7 139 -14 169 -53 42 -53 42 -9 0 64 -30 54 -78
92 -114 92 -11 0 -48 -13 -83 -30z m116 -10 c12 -12 22 -23 22 -26 0 -5 -92 6
-99 12 -8 7 22 34 38 34 10 0 27 -9 39 -20z"/>
<path d="M1836 4107 c-59 -59 -14 -167 69 -167 45 0 95 45 95 84 l0 27 33 -17
c17 -9 57 -32 88 -51 50 -30 59 -41 87 -106 18 -40 32 -77 32 -83 0 -6 -34
-28 -74 -48 -110 -54 -224 -165 -273 -264 -34 -67 -38 -86 -41 -163 l-4 -87
-73 82 c-229 257 -497 456 -725 536 -88 31 -229 39 -298 16 -64 -22 -135 -84
-157 -138 -44 -109 -10 -285 88 -456 68 -119 124 -190 240 -304 l99 -98 -31
-47 c-22 -33 -31 -58 -31 -87 0 -97 94 -217 217 -278 68 -33 68 -33 218 -33
130 1 165 5 260 28 61 15 142 41 180 56 39 16 71 27 73 26 2 -2 -2 -21 -7 -43
l-11 -40 -44 5 c-38 5 -46 2 -59 -18 -24 -37 -31 -102 -15 -133 13 -25 12 -28
-37 -80 -28 -29 -59 -72 -69 -95 -12 -25 -26 -41 -36 -41 -45 0 -88 -81 -105
-194 -6 -39 -4 -48 17 -69 19 -19 23 -32 20 -65 -5 -51 30 -172 57 -196 17
-15 18 -28 13 -147 -6 -147 3 -179 48 -179 23 0 30 -10 63 -82 28 -62 34 -84
26 -95 -9 -10 -7 -13 10 -13 17 0 21 -6 21 -30 0 -27 -3 -30 -29 -30 -16 0
-37 -7 -45 -16 -22 -22 -20 -37 3 -24 14 7 29 6 55 -5 62 -26 84 -1 61 66 -18
51 -18 49 -1 49 31 0 26 23 -12 61 -56 53 -96 124 -98 173 -1 23 -11 85 -23
139 -12 54 -21 115 -21 135 1 20 2 51 2 67 2 51 -11 101 -36 138 -20 29 -22
37 -10 41 24 9 64 107 64 155 0 35 -6 51 -27 74 -30 32 -13 27 25 -7 l24 -21
20 25 c28 35 108 196 108 218 0 10 -11 24 -25 30 -40 18 -30 88 11 80 16 -3
18 -11 16 -45 -3 -36 1 -44 26 -63 28 -21 29 -23 19 -68 -5 -26 -10 -128 -10
-227 0 -148 3 -198 21 -282 44 -205 140 -419 270 -603 78 -110 272 -310 320
-329 47 -19 67 -7 192 119 218 219 372 507 442 830 19 91 22 134 23 330 0 201
2 225 16 228 13 2 23 -16 44 -78 l27 -81 24 15 c13 9 33 16 44 16 23 0 23 -3
-12 133 -24 93 -48 128 -72 108 -14 -12 -16 -11 -16 7 0 23 34 47 50 37 6 -4
21 -28 34 -53 29 -57 70 -100 113 -118 46 -20 60 -17 67 11 4 14 11 25 16 25
21 0 9 50 -22 95 -40 58 -99 95 -125 79 -15 -9 -24 -6 -51 17 -37 33 -46 34
-84 15 -26 -14 -27 -13 -37 16 -6 17 -11 35 -11 39 0 4 39 -8 87 -27 185 -72
328 -104 470 -104 105 0 174 15 246 53 184 97 254 263 164 390 l-19 28 84 87
c208 214 320 418 321 587 1 133 -52 225 -165 286 -61 33 -66 34 -173 33 -99 0
-118 -3 -198 -33 -112 -42 -273 -139 -390 -234 -88 -72 -259 -241 -360 -356
l-47 -53 0 53 c-1 213 -135 401 -361 505 -68 32 -68 28 -12 134 36 67 75 101
162 140 52 24 51 24 51 5 0 -30 29 -72 59 -85 39 -16 95 2 118 36 37 57 -13
144 -82 144 -37 0 -147 -51 -235 -109 -30 -20 -63 -40 -73 -46 -20 -10 -54
-67 -82 -137 l-15 -39 -48 8 c-61 10 -263 10 -328 0 l-51 -8 -27 74 c-25 68
-50 107 -70 107 -4 0 -44 23 -90 50 -46 28 -87 50 -91 50 -5 0 -19 10 -32 21
-14 14 -40 24 -72 27 -43 4 -53 1 -75 -21z m89 -7 c21 -8 26 -16 23 -37 -4
-33 -48 -54 -76 -37 -24 16 -28 55 -6 71 21 16 25 16 59 3z m1226 0 c12 -7 19
-21 19 -40 0 -23 -5 -31 -26 -36 -56 -14 -95 33 -58 70 18 19 38 20 65 6z
m-2126 -273 c183 -63 345 -176 593 -412 56 -53 128 -130 160 -170 58 -72 59
-73 65 -154 8 -97 35 -165 94 -238 24 -29 40 -53 37 -53 -3 0 -34 22 -69 50
-40 32 -105 105 -180 202 -65 84 -142 182 -171 218 -67 83 -265 276 -326 318
-30 21 7 -22 111 -126 137 -137 228 -246 385 -462 6 -8 -25 17 -69 56 -116
102 -231 194 -303 243 -216 146 -443 191 -539 106 l-28 -25 39 20 c21 10 59
22 84 26 58 9 185 -18 272 -58 61 -27 194 -108 188 -113 -2 -2 -43 11 -93 28
-114 39 -243 48 -298 22 -38 -18 -77 -81 -77 -124 0 -44 57 -128 105 -153 11
-6 1 9 -22 34 -83 91 -78 179 13 219 42 19 54 20 119 10 152 -22 301 -82 410
-164 128 -96 129 -100 9 -47 -152 67 -251 99 -326 105 l-63 6 75 -21 c160 -45
403 -157 505 -232 68 -51 159 -128 150 -128 -3 0 -22 8 -43 19 -68 35 -176 62
-322 82 -180 25 -310 27 -366 6 -39 -14 -43 -14 -95 11 -73 34 -210 172 -283
285 -130 199 -181 373 -145 500 13 49 74 110 130 131 61 22 183 15 274 -17z
m3278 13 c63 -24 127 -84 159 -149 34 -68 31 -190 -6 -286 -55 -144 -176 -313
-293 -410 -103 -86 -112 -89 -181 -69 -89 27 -219 22 -402 -15 -86 -18 -192
-47 -239 -66 -47 -19 -87 -33 -88 -31 -7 6 223 204 295 255 106 73 280 157
381 182 102 26 198 22 240 -8 46 -35 36 -114 -26 -203 l-17 -25 23 20 c31 26
71 111 71 152 0 42 -41 90 -88 103 -103 28 -252 -2 -408 -84 -57 -30 -104 -53
-104 -51 0 5 150 99 245 154 96 55 107 67 22 25 -110 -56 -313 -181 -376 -234
-103 -86 -109 -88 -63 -33 63 76 183 185 297 270 144 107 160 120 110 92 -166
-93 -347 -249 -480 -414 -73 -91 -161 -175 -265 -253 -59 -45 -70 -48 -87 -31
-9 9 0 26 38 68 72 80 120 182 127 268 5 67 6 69 80 161 95 118 241 264 357
357 291 232 514 316 678 255z m-1622 -89 c80 -21 191 -67 224 -95 19 -16 18
-16 -12 -1 -140 67 -423 95 -583 57 -47 -11 -116 -34 -154 -51 -38 -18 -71
-30 -73 -27 -6 6 55 50 102 74 140 70 327 86 496 43z m62 -89 c210 -57 338
-168 366 -319 10 -53 -3 -113 -24 -113 -20 0 -19 -6 7 -41 18 -23 24 -47 26
-105 4 -68 1 -81 -27 -139 -59 -120 -210 -227 -366 -260 -118 -25 -305 -17
-412 16 -27 9 -33 16 -33 40 0 16 -5 29 -11 29 -25 0 -184 84 -220 117 -21 19
-39 31 -39 26 0 -16 67 -89 119 -129 28 -21 49 -40 47 -42 -7 -7 -109 63 -163
112 -65 59 -113 150 -113 215 1 25 9 70 19 100 17 50 18 57 4 78 -35 53 -1
229 52 273 11 9 8 -2 -9 -35 -26 -48 -33 -75 -18 -75 4 0 7 -30 8 -68 1 -132
73 -212 190 -212 111 0 204 99 204 215 0 64 -16 102 -59 138 -66 55 -172 61
-256 13 -56 -31 -48 -10 20 53 55 51 146 94 253 121 105 27 321 23 435 -8z
m-519 -193 c28 -22 35 -66 14 -87 -7 -7 -26 -12 -44 -12 -24 0 -40 9 -63 35
l-31 36 0 -40 c0 -45 -20 -71 -55 -71 -30 0 -48 30 -39 65 11 46 103 110 104
73 0 -7 5 -5 11 5 14 24 70 22 103 -4z m1761 -575 c83 -28 86 -37 35 -89 -43
-44 -159 -111 -233 -135 -33 -10 -52 -8 -160 19 -123 31 -267 51 -374 51 l-58
1 55 28 c110 57 323 118 505 145 54 8 179 -3 230 -20z m-2575 0 c153 -20 322
-62 438 -110 48 -20 88 -37 89 -37 0 -1 -56 -2 -125 -2 -141 -1 -262 -17 -359
-46 -76 -24 -102 -18 -192 42 -61 41 -137 127 -123 141 10 10 78 26 117 27 16
1 86 -6 155 -15z m-252 -96 c61 -66 151 -130 210 -149 20 -6 41 -15 45 -19 4
-4 -37 -18 -92 -31 -56 -13 -101 -27 -101 -30 0 -8 27 -3 170 27 82 18 138 24
195 22 l80 -3 -48 -29 c-26 -16 -80 -42 -120 -58 -40 -16 -57 -26 -38 -22 51
9 165 59 213 92 32 22 67 34 137 46 106 18 141 20 96 4 -78 -27 -335 -131
-332 -135 2 -2 73 21 158 50 85 30 167 57 182 61 28 7 28 6 12 -18 -22 -33
-190 -99 -334 -132 -120 -27 -251 -33 -330 -14 -133 32 -271 175 -271 281 0
25 10 42 45 76 25 24 50 43 56 43 5 0 36 -28 67 -62z m2966 -3 c22 -45 20
-108 -4 -154 -27 -53 -110 -125 -189 -164 -65 -31 -69 -32 -201 -32 -158 1
-229 17 -432 97 -113 45 -171 79 -156 93 2 3 91 -24 196 -59 106 -36 192 -61
192 -57 0 4 -76 34 -169 67 -93 32 -168 60 -166 62 1 2 55 -5 119 -14 113 -17
119 -19 184 -67 37 -27 85 -58 107 -67 85 -38 86 -29 3 22 -151 93 -150 88
-22 83 75 -2 142 -12 208 -29 68 -18 103 -22 119 -16 19 7 19 9 3 9 -10 1 -57
13 -105 28 l-86 27 40 8 c75 16 207 89 265 148 30 30 60 54 67 52 6 -2 19 -19
27 -37z m-2054 -62 c0 -7 -32 -32 -42 -33 -10 0 -11 44 -2 53 7 7 44 -10 44
-20z m-87 -32 c8 -8 0 -11 -31 -11 -23 0 -101 -10 -174 -21 -163 -26 -375 -22
-347 6 5 4 143 26 249 39 66 8 291 -1 303 -13z m1577 -20 c47 -11 96 -24 110
-29 24 -9 24 -10 -13 -17 -46 -9 -243 9 -398 35 -63 11 -118 20 -124 21 -5 1
6 5 25 10 59 13 307 1 400 -20z m-602 -29 l24 -18 -79 -22 c-43 -12 -121 -29
-173 -38 -164 -28 -389 -7 -526 51 -34 14 -37 18 -21 26 12 7 32 6 65 -5 212
-68 505 -65 639 8 36 20 43 19 71 -2z m215 1 c-7 -2 -21 -2 -30 0 -10 3 -4 5
12 5 17 0 24 -2 18 -5z m-1065 -70 c43 -14 78 -27 80 -29 2 -1 -13 -28 -34
-60 -20 -31 -46 -81 -58 -110 l-22 -53 -51 23 c-28 13 -54 29 -57 35 -15 24
38 221 59 221 4 0 41 -12 83 -27z m971 -48 c13 -33 24 -79 25 -104 1 -42 -1
-46 -39 -67 l-39 -23 -41 77 c-23 42 -49 89 -59 104 -15 22 -15 29 -5 33 8 2
37 13 64 24 28 10 55 18 60 17 6 -2 21 -29 34 -61z m-744 -11 c104 -19 374
-15 483 7 63 13 64 13 83 -12 22 -29 102 -179 97 -183 -1 -2 -32 -13 -68 -24
-158 -52 -347 -75 -502 -61 -102 8 -242 38 -303 63 l-36 15 37 72 c54 107 84
150 103 145 9 -3 57 -13 106 -22z m1108 -162 c29 -30 36 -62 14 -62 -24 0 -96
60 -90 75 9 24 47 17 76 -13z m-1253 -174 c100 -26 137 -31 282 -35 187 -6
310 6 446 42 48 13 94 26 103 30 20 7 34 -29 45 -112 l6 -52 -60 -30 c-154
-78 -405 -121 -588 -101 -151 16 -367 75 -412 113 -15 12 -11 75 9 150 9 34
13 38 32 32 12 -3 74 -20 137 -37z m-461 -28 c-17 -27 -35 -53 -41 -56 -13 -8
-7 3 34 64 40 58 45 53 7 -8z m-91 -168 c4 -35 -39 -142 -57 -142 -15 0 -23
37 -16 73 20 95 25 108 48 105 17 -2 23 -11 25 -36z m1419 -149 c-4 -43 -10
-88 -13 -101 -8 -28 -50 -50 -174 -91 -159 -53 -237 -64 -385 -58 -158 8 -267
33 -406 94 -63 28 -64 29 -76 155 -4 47 -2 68 5 68 7 0 49 -11 94 -24 160 -46
272 -59 471 -53 188 5 298 23 417 66 30 11 59 20 64 20 5 1 6 -32 3 -76z
m-1432 -80 c4 -10 9 -52 11 -93 4 -61 3 -71 -7 -56 -14 23 -39 113 -39 144 0
26 25 30 35 5z m688 -229 c185 -33 434 -16 617 42 41 13 76 22 77 20 12 -12
-18 -42 -61 -61 -170 -75 -393 -109 -556 -86 -74 11 -304 71 -315 83 -3 2 -8
18 -11 35 l-6 31 81 -24 c45 -13 123 -31 174 -40z m612 -151 c-50 -120 -78
-140 -245 -183 -69 -18 -103 -21 -185 -17 -111 5 -258 43 -278 71 -23 31 -81
146 -76 150 2 3 40 -4 84 -14 212 -50 412 -48 610 4 50 13 93 25 98 25 4 1 0
-16 -8 -36z m-1235 -79 c0 -15 -6 -24 -15 -24 -15 0 -21 40 -9 53 12 11 24 -3
24 -29z m1090 -193 c0 -32 -211 -271 -239 -271 -29 0 -263 251 -248 266 3 3
42 -2 87 -10 105 -20 215 -19 310 4 95 22 90 22 90 11z"/>
<path d="M915 3784 c50 -7 123 -24 164 -38 92 -32 104 -27 19 7 -81 32 -155
47 -221 46 -46 -1 -42 -3 38 -15z"/>
<path d="M1075 3557 c43 -48 97 -102 119 -120 l41 -32 -32 40 c-31 39 -102
109 -173 170 -19 17 1 -10 45 -58z"/>
<path d="M1183 3030 c-53 -24 -56 -32 -5 -14 20 7 82 14 137 15 68 1 90 4 70
9 -60 15 -158 10 -202 -10z"/>
<path d="M1495 2972 c33 -10 87 -30 119 -45 32 -15 61 -25 63 -23 10 10 -148
76 -193 81 l-49 5 60 -18z"/>
<path d="M4049 3785 c-59 -15 -202 -75 -196 -82 3 -2 28 6 58 17 29 12 92 31
139 42 128 30 211 16 331 -57 l44 -26 -35 32 c-85 76 -219 105 -341 74z"/>
<path d="M3852 3605 c-23 -13 -70 -45 -105 -71 -71 -54 -467 -448 -467 -466 0
-6 102 90 228 213 199 197 273 262 372 331 37 25 21 21 -28 -7z"/>
<path d="M3933 3498 c-11 -13 -24 -30 -28 -38 -8 -16 -6 -14 34 33 14 15 22
27 19 27 -2 0 -14 -10 -25 -22z"/>
<path d="M4065 3445 c-59 -13 -149 -45 -143 -51 2 -1 35 6 73 18 92 26 226 29
275 4 l35 -17 -23 20 c-21 18 -103 42 -140 40 -9 0 -44 -7 -77 -14z"/>
<path d="M3988 3153 c7 -3 16 -2 19 1 4 3 -2 6 -13 5 -11 0 -14 -3 -6 -6z"/>
<path d="M3852 3125 c-104 -36 -243 -103 -349 -169 -51 -31 -93 -59 -93 -61 0
-2 80 37 177 87 97 50 224 108 282 129 58 21 95 38 81 38 -14 0 -58 -11 -98
-24z"/>
<path d="M3660 3000 c-8 -5 -10 -10 -5 -10 6 0 17 5 25 10 8 5 11 10 5 10 -5
0 -17 -5 -25 -10z"/>
<path d="M2798 3520 c-69 -21 -127 -95 -128 -164 0 -74 62 -176 131 -211 35
-19 110 -19 152 -1 39 17 92 71 106 109 15 40 14 129 -3 168 -17 41 -61 84
-99 98 -33 13 -120 13 -159 1z m166 -52 c36 -33 43 -71 17 -97 -40 -40 -103
-21 -117 34 -6 22 -10 24 -50 18 -53 -7 -56 5 -13 41 42 35 125 37 163 4z"/>
<path d="M2425 3217 c-73 -19 -145 -63 -145 -89 0 -13 119 -97 183 -129 70
-36 76 -62 20 -86 -70 -29 -192 -1 -310 70 -50 29 -52 32 -36 49 15 17 14 18
-26 18 -34 0 -49 -6 -72 -29 -25 -26 -38 -51 -25 -51 3 0 21 10 41 21 l36 22
25 -24 c14 -13 28 -22 31 -21 2 2 8 0 11 -4 4 -4 1 -4 -5 0 -7 4 -13 3 -13 -3
0 -14 85 -74 156 -109 191 -96 394 -76 542 54 l37 33 -50 -25 c-27 -13 -88
-33 -135 -45 -153 -39 -353 -15 -477 57 -62 36 -53 37 20 3 190 -88 477 -74
633 31 42 28 50 30 76 19 37 -15 45 -6 24 26 -18 28 -54 45 -89 44 l-22 0 23
-16 c22 -16 22 -16 -32 -50 -110 -69 -262 -99 -292 -59 -23 32 -17 41 44 80
31 20 81 58 110 86 53 49 53 49 33 69 -11 11 -39 30 -63 42 -52 27 -180 35
-253 16z m205 -127 c0 -3 -24 -19 -53 -34 l-52 -29 -67 34 -67 34 119 0 c66 0
120 -2 120 -5z"/>
<path d="M2960 2913 c-41 -62 -43 -70 -6 -29 20 22 36 45 36 53 0 19 -2 17
-30 -24z"/>
<path d="M2693 3870 c0 -30 2 -43 4 -27 2 15 2 39 0 55 -2 15 -4 2 -4 -28z"/>
<path d="M3505 2250 c-3 -5 -3 -10 0 -10 4 0 -1 -7 -9 -16 -22 -22 -20 -61 8
-119 28 -58 70 -105 93 -105 15 0 15 -2 1 -17 -21 -24 -34 -175 -19 -227 9
-34 7 -44 -14 -81 -30 -51 -32 -75 -6 -75 29 0 33 -15 19 -61 -11 -39 -10 -43
11 -60 32 -26 65 -24 98 7 28 25 28 25 2 9 -30 -18 -40 -11 -59 39 -15 39 -4
66 26 66 24 0 32 14 14 25 -15 9 -12 110 5 190 19 88 19 159 1 174 -7 6 -11
21 -9 34 7 34 -120 237 -148 237 -4 0 -11 -4 -14 -10z m104 -209 c-15 -5 -55
36 -73 74 -29 60 -16 58 34 -6 27 -35 44 -66 39 -68z m51 -107 c0 -40 -21
-168 -31 -184 -10 -18 -12 60 -3 149 5 41 11 61 20 61 8 0 14 -11 14 -26z
m-30 -270 c0 -15 -6 -24 -16 -24 -11 0 -14 5 -10 16 3 9 6 22 6 30 0 9 5 12
10 9 6 -3 10 -17 10 -31z"/>
<path d="M3264 2071 c-25 -38 -26 -47 -21 -116 6 -81 30 -142 62 -159 11 -6
22 -12 24 -14 3 -1 -5 -12 -17 -25 -11 -12 -25 -35 -31 -50 -15 -39 -14 -137
3 -168 12 -23 9 -36 -35 -145 -28 -68 -47 -128 -44 -140 5 -22 -59 -121 -98
-153 -23 -19 -21 -29 8 -43 20 -9 22 -14 14 -30 -6 -10 -9 -33 -7 -51 3 -32 3
-32 58 -32 30 0 61 -4 68 -8 8 -5 12 -3 12 7 0 21 -39 46 -72 46 -21 0 -28 5
-28 20 0 10 8 23 17 29 14 7 15 12 5 24 -10 12 -5 29 26 93 25 54 43 78 53 76
33 -6 51 35 71 160 10 68 23 132 28 143 29 63 33 210 6 244 -8 11 -8 15 2 19
23 8 42 33 43 60 7 155 -21 229 -93 247 -23 6 -30 2 -54 -34z m106 -126 c0
-92 -11 -108 -36 -50 -14 35 -19 116 -7 128 3 4 15 7 25 7 16 0 18 -9 18 -85z
m-42 -302 c-3 -88 -21 -102 -26 -21 -4 59 4 98 19 98 6 0 9 -29 7 -77z m-48
-363 c-8 -15 -15 -19 -22 -12 -7 7 -6 17 2 32 8 15 15 19 22 12 7 -7 6 -17 -2
-32z"/>
</g>
</svg>